# xmcd
#
# Track frame offsets:
#	150
#	19684
#	33801
#	52558
#	78747
#	96304
#	118063
#	133789
#	156139
#	178255
#
# Disc length: 2606 seconds
#
# Revision: 0
# Processed by: cddbd v1.5.2PL0 Copyright (c) Steve Scherf et al.
# Submitted via: audiograbber 1.83.01
#
DISCID=7a0a2c0a
DTITLE=Domenick Swentosky - Afterlife
DYEAR=1900
DGENRE=
TTITLE0=Walking Bob Dylan
TTITLE1=Afterlife
TTITLE2=Grandfather
TTITLE3=Goodbye Goldie
TTITLE4=Liar
TTITLE5=Louisiana Poor
TTITLE6=Here
TTITLE7=Never Leave
TTITLE8=Haunted
TTITLE9=The Great Divide
EXTD=www.greytime.com
EXTT0=
EXTT1=
EXTT2=
EXTT3=
EXTT4=
EXTT5=
EXTT6=
EXTT7=
EXTT8=
EXTT9=
PLAYORDER=
